<svg width="5544" height="1001" viewBox="0 0 5544 1001" fill="none" xmlns="http://www.w3.org/2000/svg">
<path d="M1211.08 818.893V111.937H1101V818.893H1211.08Z" fill="black"/>
<path d="M1522.17 831.013C1579.74 831.013 1644.37 802.734 1673.66 755.267V818.893H1782.73V348.262H1673.66V411.888C1644.37 364.421 1587.81 336.143 1525.2 336.143C1378.76 336.143 1290.89 445.216 1290.89 583.578C1290.89 721.939 1370.68 831.013 1522.17 831.013ZM1538.33 733.049C1452.48 733.049 1400.98 669.423 1400.98 583.578C1400.98 497.733 1452.48 434.107 1538.33 434.107C1632.25 434.107 1677.7 502.783 1677.7 583.578C1677.7 664.373 1632.25 733.049 1538.33 733.049Z" fill="black"/>
<path d="M2110.76 725.979C2067.33 725.979 2042.08 715.88 2042.08 634.075V440.167H2150.15V348.262H2042.08V205.861H1932V348.262H1852.21V440.167H1932V659.323C1932 817.883 2030.97 824.953 2084.5 824.953C2116.82 824.953 2149.14 821.923 2166.3 818.893V721.939C2155.19 723.959 2127.93 725.979 2110.76 725.979Z" fill="black"/>
<path d="M2295.79 280.596C2344.27 280.596 2377.59 244.239 2377.59 198.791C2377.59 153.344 2344.27 116.986 2295.79 116.986C2247.31 116.986 2213.98 153.344 2213.98 198.791C2213.98 244.239 2247.31 280.596 2295.79 280.596ZM2350.33 818.893V348.262H2241.25V818.893H2350.33Z" fill="black"/>
<path d="M2678.6 725.979C2635.18 725.979 2609.93 715.88 2609.93 634.075V440.167H2717.99V348.262H2609.93V205.861H2499.84V348.262H2420.06V440.167H2499.84V659.323C2499.84 817.883 2598.82 824.953 2652.34 824.953C2684.66 824.953 2716.98 821.923 2734.15 818.893V721.939C2723.04 723.959 2695.77 725.979 2678.6 725.979Z" fill="black"/>
<path d="M2978.77 831.013C3046.43 831.013 3095.92 803.744 3124.2 753.247V818.893H3234.28V348.262H3124.2V613.876C3124.2 681.542 3093.9 737.088 3010.08 737.088C2938.37 737.088 2914.13 692.651 2914.13 616.906V348.262H2804.05V644.174C2804.05 770.416 2875.75 831.013 2978.77 831.013Z" fill="black"/>
<path d="M3696.38 411.888C3667.09 364.421 3610.53 336.143 3547.92 336.143C3401.47 336.143 3313.61 445.216 3313.61 583.578C3313.61 721.939 3393.39 831.013 3544.89 831.013C3602.45 831.013 3667.09 802.734 3696.38 755.267V818.893H3805.45V111.937H3696.38V411.888ZM3561.04 733.049C3475.2 733.049 3423.69 669.423 3423.69 583.578C3423.69 497.733 3475.2 434.107 3561.04 434.107C3654.97 434.107 3700.42 502.783 3700.42 583.578C3700.42 664.373 3654.97 733.049 3561.04 733.049Z" fill="black"/>
<path d="M4346.57 559.339C4346.57 427.037 4255.68 336.143 4121.35 336.143C3977.94 336.143 3885.03 433.097 3885.03 583.578C3885.03 736.078 3976.93 831.013 4125.39 831.013C4238.51 831.013 4327.38 769.406 4341.52 681.542H4230.43C4212.25 717.9 4179.93 735.069 4125.39 735.069C4045.61 735.069 3997.13 694.671 3994.1 619.936H4343.54C4345.56 593.677 4346.57 578.528 4346.57 559.339ZM3994.1 536.111C3995.11 469.455 4041.57 422.998 4119.33 422.998C4195.08 422.998 4237.5 463.395 4238.51 536.111H3994.1Z" fill="black"/>
<path d="M4481.71 826.973C4529.18 826.973 4567.56 787.585 4567.56 741.128C4567.56 694.671 4529.18 656.293 4481.71 656.293C4434.25 656.293 4396.88 694.671 4396.88 741.128C4396.88 787.585 4434.25 826.973 4481.71 826.973Z" fill="black"/>
<path d="M4837.27 831.013C4951.4 831.013 5023.1 776.476 5023.1 684.572C5023.1 617.916 4980.69 569.439 4914.03 550.25L4820.11 522.982C4776.68 510.862 4761.53 493.693 4761.53 468.445C4761.53 440.167 4789.81 419.968 4829.19 419.968C4880.7 419.968 4911 443.196 4911 482.584H5019.06C5019.06 391.69 4948.37 336.143 4833.23 336.143C4728.2 336.143 4652.46 394.719 4652.46 474.505C4652.46 541.16 4689.82 588.628 4755.47 606.806L4849.39 632.055C4899.89 645.184 4911 661.343 4911 687.601C4911 720.929 4884.74 743.148 4843.33 743.148C4786.78 743.148 4747.39 714.87 4747.39 674.472H4637.31C4637.31 764.357 4722.14 831.013 4837.27 831.013Z" fill="black"/>
<path d="M5371.56 336.143C5301.88 336.143 5247.34 363.411 5218.05 413.908V111.937H5107.97V818.893H5218.05V560.349C5218.05 477.534 5258.45 430.067 5330.16 430.067C5406.91 430.067 5433.17 473.495 5433.17 573.478V818.893H5543.25V522.982C5543.25 399.769 5484.68 336.143 5371.56 336.143Z" fill="black"/>
<path d="M804.567 749.721L720.38 1000.58H235.628L319.816 749.721H804.567ZM537.058 0.584915H236.554L0 705.474H300.495L537.058 0.584915Z" fill="black"/>
</svg>
