<?xml version="1.0" encoding="UTF-8"?><svg id="Logos" xmlns="http://www.w3.org/2000/svg" xmlns:xlink="http://www.w3.org/1999/xlink" viewBox="0 0 504 144"><defs><style>.cls-1{fill:url(#linear-gradient-2);}.cls-1,.cls-2,.cls-3{stroke:#fff;stroke-miterlimit:10;stroke-width:4.64099px;}.cls-2{fill:url(#linear-gradient-3);}.cls-4{fill:#fff;}.cls-3{fill:url(#linear-gradient);}</style><linearGradient id="linear-gradient" x1="-433.94436" y1="-1868.39851" x2="-398.26609" y2="-1813.04075" gradientTransform="translate(539 -1785.5) scale(1 -1)" gradientUnits="userSpaceOnUse"><stop offset="0" stop-color="#39a845"/><stop offset="1" stop-color="#7fd37f"/></linearGradient><linearGradient id="linear-gradient-2" x1="-410.20647" y1="-1901.67445" x2="-371.38158" y2="-1867.33796" gradientTransform="translate(539 -1785.5) scale(1 -1)" gradientUnits="userSpaceOnUse"><stop offset="0" stop-color="#ffc300"/><stop offset="1" stop-color="#ffd02e"/></linearGradient><linearGradient id="linear-gradient-3" x1="121.19967" y1="49.77091" x2="140.62395" y2="49.77091" gradientTransform="matrix(1,0,0,1,0,0)" xlink:href="#linear-gradient-2"/></defs><path class="cls-3" d="m106.99256,31.4411c18.09828-.76034,36.19394-1.51806,54.29222-2.2784-5.64338,13.7388-11.28676,27.47761-16.93277,41.21641-8.8584.26309-17.71417.52619-26.57256.78928-2.72303,15.17267-5.44869,30.34271-8.17172,45.51538h-14.18343c3.85434-28.41422,7.71131-56.82845,11.56827-85.24268Z"/><path class="cls-1" d="m153.95759,91.68979h-19.83207c.68931,4.91198,1.38125,9.82133,2.07055,14.7333,10.91843-1.14446,21.83949-2.28893,32.75792-3.43076.39464,4.82779.78665,9.65558,1.18129,14.48073-17.27743-.17628-34.55223-.34991-51.82965-.52619,2.37312-11.88398,4.7436-23.76797,7.11671-35.65196l28.40107-1.57068.13418,11.96555h0Z"/><polygon class="cls-2" points="124.53045 44.47218 121.19967 55.64581 135.58306 56.71135 140.62395 42.83047 124.53045 44.47218"/><path class="cls-4" d="m204.79492,101.85742l-.48047-2.55957c1.12109-.90625,2.34766-1.74707,3.68066-2.52051,1.33301-.77246,2.74609-1.50586,4.24023-2.2002l.0791,7.28027h-7.51953Zm10.64062-47.12012l-10.40039-1.75977.08008-4.40039h10.48047l-.16016,6.16016Zm-4.32031,47.12012v-53.28027h16.7998v53.28027h-16.7998Zm39.75977-43.75977l-26.32031-1.83984-6-7.68066h33.36035l-1.04004,9.52051Zm-31.75977,43.75977l6-7.83984,25.91992-2.32031.08008,10.16016h-32Zm25.04004-22.24023l-19.2002-.7998v-6.7998l19.2002-1.60059v9.2002Zm7.04004,22.24023l-14.32031-.63965,6.08008-17.52051,9.2002.71973c.05176,1.54785.04004,3.36035-.04004,5.44043s-.2002,4.17383-.35938,6.28027c-.16016,2.10742-.34766,4.01367-.56055,5.71973Zm-10.16016-36.08008l-3.12012-16.47949,14-.7207c.05273,1.22754.02637,2.83984-.08008,4.83984-.10742,2-.29395,4.09375-.55957,6.28027-.26758,2.1875-.61328,4.21387-1.04004,6.08008h-9.2002Z"/><path class="cls-4" d="m253.67578,68.65723l-.16016-3.91992c2.55957-.90625,5.31934-1.62598,8.2793-2.16016,2.96094-.53223,6.04004-.85254,9.24023-.95996l.32031,3.83984-7.67969,5.76074-10-2.56055Zm.71875,49.28027l-.08008-2.87988c1.70703-.69434,3.48047-1.3877,5.32031-2.08008,1.83984-.69434,3.58594-1.3877,5.24023-2.08008l-.63965,7.04004h-9.84082Zm5.20117,0v-51.67969l11.35938-4.64062,4.7207,4.24023v52.08008h-16.08008Zm21.51953-16c-2.98828,0-6.30762-.48047-9.95996-1.44043-3.65332-.95996-6.97363-2.23926-9.95996-3.83984l6.24023-5.67969c.95898.74707,2.17188,1.42773,3.63965,2.04004,1.46582.61328,3.04004,1.08008,4.71973,1.39941,1.67969.32031,3.29297.48047,4.83984.48047,1.12109-1.28027,2.0127-2.97266,2.67969-5.08008.66699-2.10645,1-4.28027,1-6.51953,0-1.8125-.23926-3.52051-.71875-5.12012-.48047-1.60059-1.21484-2.89258-2.20117-3.87988-.98633-.98633-2.25293-1.48047-3.79883-1.48047-1.01367,0-2.13477.25391-3.36035.75977-1.22754.50781-2.53418,1.21387-3.9209,2.12012l-.71875-2.55957,14.23926-10.7998c2.82715-.42676,5.32031-.22656,7.47949.59961,2.16016.82715,4,2.13379,5.52051,3.91992,1.52051,1.78711,2.66699,3.86719,3.44043,6.24023.77246,2.37305,1.16016,4.89355,1.16016,7.55957,0,2.66797-.41406,5.26758-1.24023,7.7998-.82812,2.53418-2.06836,4.81445-3.7207,6.84082-1.65332,2.02734-3.75977,3.63965-6.31934,4.83984s-5.57324,1.7998-9.04004,1.7998Zm-10.64062,16l2.64062-9.2002c1.75977.85254,3.53223,1.71973,5.32031,2.60059,1.78516.87988,3.50586,1.77246,5.16016,2.67969l-.08008,3.91992h-13.04102Z"/><path class="cls-4" d="m301.19531,68.65723l-.16016-3.91992c2.55957-.90625,5.31934-1.62598,8.2793-2.16016,2.96094-.53223,6.04004-.85254,9.24023-.95996l-.40039,6.87988-6.95898,2.7207-10-2.56055Zm0,33.2002l-.08008-2.7998c1.70508-1.06641,3.47949-1.94629,5.31934-2.64062,1.84082-.69238,3.58691-1.22559,5.24023-1.59961l-.63965,7.04004h-9.83984Zm14.87891-43.44043c-2.08008-.95996-4.02734-2.14551-5.83984-3.55957-1.81348-1.41211-3.41406-2.94629-4.7998-4.59961,1.12012-2.18652,2.42676-4.18652,3.91992-6,1.49316-1.8125,3.14648-3.41309,4.95996-4.80078,2.02637,1.12012,3.89258,2.48047,5.59961,4.08008,1.70703,1.60059,3.20117,3.33398,4.48047,5.2002-1.01367,1.91992-2.22754,3.70801-3.63965,5.36035-1.41406,1.65332-2.97363,3.09375-4.68066,4.31934Zm-8.87891,43.44043v-35.59961l11.35938-4.64062,4.7207,4.24023v36h-16.08008Zm7.43945,0l2.64062-9.2002c1.75977.53418,3.74609,1.24023,5.95898,2.12012s4.14648,1.93359,5.80078,3.16016l-.08008,3.91992h-14.32031Z"/><path class="cls-4" d="m353.75391,102.81738c-3.09375.63965-6.13281.63965-9.11914,0-2.98828-.63965-5.68066-1.83984-8.08008-3.59961-2.40039-1.76074-4.32031-4.04004-5.76074-6.84082-1.44043-2.7998-2.15918-6.03906-2.15918-9.71973,0-4.26562.93164-7.97266,2.79883-11.12012,1.86719-3.14551,4.37305-5.59961,7.52051-7.35938,3.14648-1.76074,6.66699-2.64062,10.55957-2.64062,2.61328,0,5.13281.44043,7.56055,1.32031,2.42578.87988,4.50586,2.21387,6.24023,4,1.73242,1.78711,2.86523,4.04004,3.40039,6.75977l-13.20117,6.32031c-.85352-2.34668-1.74707-4.38672-2.67969-6.12012-.93359-1.73242-2.06738-3.13281-3.40039-4.2002-1.43945,1.49414-2.38672,3.28027-2.83984,5.36035s-.67969,3.86719-.67969,5.36035c0,2.45312.40039,4.65332,1.2002,6.59961.7998,1.94727,2,3.47949,3.60059,4.59961,1.59961,1.12012,3.57227,1.68066,5.91992,1.68066,1.43945,0,2.87891-.22656,4.31934-.68066,1.44043-.45215,2.95996-1.08008,4.55957-1.87988l2.08008,4.71973-11.83984,7.44043Z"/><path class="cls-4" d="m383.11328,103.45703c-2.61328,0-5.44043-.34668-8.48047-1.04004-3.03906-.69238-6.05371-1.78613-9.03906-3.2793l5.03906-11.68066c2.24023,1.81445,4.5332,3.44043,6.88086,4.88086,2.3457,1.43945,4.69141,2.69336,7.03906,3.75977.42676-.32031.73242-.7207.91992-1.2002.18652-.48047.28027-.90625.28027-1.28027,0-.95996-.4541-1.8125-1.36035-2.55957-.90723-.74609-2.06641-1.49316-3.47949-2.24023-1.41309-.74609-2.93359-1.5459-4.55957-2.40039-1.62793-.85254-3.14844-1.8125-4.56055-2.87988-1.41406-1.06641-2.57422-2.3457-3.48047-3.83984-.90625-1.49219-1.35938-3.22656-1.35938-5.2002,0-2.50586.77246-4.73242,2.32031-6.67969,1.5459-1.94629,3.70605-3.47949,6.47949-4.59961,2.77246-1.12012,6-1.68066,9.68066-1.68066,2.13184,0,4.38574.21387,6.75977.64062,2.37207.42676,4.49219,1.12012,6.35938,2.08008l-2.95898,7.2793c-1.60059-.95996-3.40039-1.74609-5.40039-2.35938s-3.82812-.94629-5.48047-1c-1.43945.26758-2.37305.67969-2.7998,1.23926-.42773.56055-.63965,1.13379-.63965,1.7207,0,1.01367.46582,1.91992,1.39941,2.71973.93262.7998,2.12012,1.58789,3.55957,2.36035,1.44043.77344,2.97266,1.58691,4.60059,2.43945,1.62598.85352,3.16016,1.83984,4.60059,2.95996,1.43945,1.12012,2.625,2.42773,3.55957,3.91992.93262,1.49414,1.39941,3.25391,1.39941,5.28027,0,3.57422-1.50684,6.57422-4.51953,9-3.01367,2.42676-7.26758,3.63965-12.75977,3.63965Zm6.32031-27.67969l-5.04102-12.32031,14.16016.80078c.21289,1.91992.21289,3.85352,0,5.7998-.21289,1.94727-.61328,3.85352-1.19922,5.71973h-7.91992Z"/></svg>