<svg width="5547" height="1000" viewBox="0 0 5547 1000" fill="none" xmlns="http://www.w3.org/2000/svg">
<path d="M1214.11 822.215V115.221H1104.02V822.215H1214.11Z" fill="white"/>
<path d="M1525.21 834.335C1582.78 834.335 1647.42 806.055 1676.71 758.586V822.215H1785.79V351.559H1676.71V415.189C1647.42 367.719 1590.86 339.439 1528.24 339.439C1381.8 339.439 1293.93 448.518 1293.93 586.887C1293.93 725.256 1373.72 834.335 1525.21 834.335ZM1541.37 736.366C1455.52 736.366 1404.02 672.737 1404.02 586.887C1404.02 501.038 1455.52 437.409 1541.37 437.409C1635.3 437.409 1680.75 506.088 1680.75 586.887C1680.75 667.687 1635.3 736.366 1541.37 736.366Z" fill="white"/>
<path d="M2113.83 729.296C2070.4 729.296 2045.15 719.196 2045.15 637.387V443.468H2153.22V351.559H2045.15V209.15H1935.07V351.559H1855.28V443.468H1935.07V662.637C1935.07 821.205 2034.04 828.275 2087.57 828.275C2119.89 828.275 2152.21 825.245 2169.38 822.215V725.256C2158.27 727.276 2131 729.296 2113.83 729.296Z" fill="white"/>
<path d="M2298.88 283.89C2347.36 283.89 2380.68 247.53 2380.68 202.08C2380.68 156.631 2347.36 120.271 2298.88 120.271C2250.4 120.271 2217.07 156.631 2217.07 202.08C2217.07 247.53 2250.4 283.89 2298.88 283.89ZM2353.42 822.215V351.559H2244.34V822.215H2353.42Z" fill="white"/>
<path d="M2681.71 729.296C2638.28 729.296 2613.03 719.196 2613.03 637.387V443.468H2721.1V351.559H2613.03V209.15H2502.94V351.559H2423.15V443.468H2502.94V662.637C2502.94 821.205 2601.92 828.275 2655.45 828.275C2687.77 828.275 2720.09 825.245 2737.26 822.215V725.256C2726.15 727.276 2698.88 729.296 2681.71 729.296Z" fill="white"/>
<path d="M2981.89 834.335C3049.56 834.335 3099.05 807.065 3127.33 756.566V822.215H3237.42V351.559H3127.33V617.187C3127.33 684.856 3097.03 740.406 3013.2 740.406C2941.49 740.406 2917.25 695.966 2917.25 620.217V351.559H2807.16V647.487C2807.16 773.736 2878.87 834.335 2981.89 834.335Z" fill="white"/>
<path d="M3699.54 415.189C3670.25 367.719 3613.69 339.439 3551.07 339.439C3404.62 339.439 3316.75 448.518 3316.75 586.887C3316.75 725.256 3396.54 834.335 3548.04 834.335C3605.61 834.335 3670.25 806.055 3699.54 758.586V822.215H3808.62V115.221H3699.54V415.189ZM3564.2 736.366C3478.35 736.366 3426.84 672.737 3426.84 586.887C3426.84 501.038 3478.35 437.409 3564.2 437.409C3658.13 437.409 3703.58 506.088 3703.58 586.887C3703.58 667.687 3658.13 736.366 3564.2 736.366Z" fill="white"/>
<path d="M4349.77 562.647C4349.77 430.339 4258.87 339.439 4124.54 339.439C3981.12 339.439 3888.2 436.398 3888.2 586.887C3888.2 739.396 3980.11 834.335 4128.58 834.335C4241.7 834.335 4330.58 772.726 4344.72 684.856H4233.62C4215.44 721.216 4183.12 738.386 4128.58 738.386C4048.79 738.386 4000.31 697.986 3997.28 623.247H4346.74C4348.76 596.987 4349.77 581.837 4349.77 562.647ZM3997.28 539.418C3998.29 472.758 4044.75 426.299 4122.52 426.299C4198.27 426.299 4240.69 466.698 4241.7 539.418H3997.28Z" fill="white"/>
<path d="M4484.92 830.295C4532.38 830.295 4570.76 790.906 4570.76 744.446C4570.76 697.986 4532.38 659.607 4484.92 659.607C4437.45 659.607 4400.08 697.986 4400.08 744.446C4400.08 790.906 4437.45 830.295 4484.92 830.295Z" fill="white"/>
<path d="M4840.5 834.335C4954.62 834.335 5026.33 779.796 5026.33 687.886C5026.33 621.227 4983.91 572.747 4917.25 553.558L4823.33 526.288C4779.9 514.168 4764.75 496.998 4764.75 471.748C4764.75 443.468 4793.03 423.269 4832.42 423.269C4883.93 423.269 4914.22 446.498 4914.22 485.888H5022.29C5022.29 394.989 4951.59 339.439 4836.46 339.439C4731.42 339.439 4655.67 398.019 4655.67 477.808C4655.67 544.468 4693.04 591.937 4758.69 610.117L4852.62 635.367C4903.11 648.497 4914.22 664.657 4914.22 690.916C4914.22 724.246 4887.96 746.466 4846.56 746.466C4790 746.466 4750.61 718.186 4750.61 677.787H4640.52C4640.52 767.676 4725.36 834.335 4840.5 834.335Z" fill="white"/>
<path d="M5374.81 339.439C5305.12 339.439 5250.58 366.709 5221.29 417.209V115.221H5111.2V822.215H5221.29V563.657C5221.29 480.838 5261.69 433.369 5333.4 433.369C5410.16 433.369 5436.42 476.798 5436.42 576.787V822.215H5546.51V526.288C5546.51 403.069 5487.93 339.439 5374.81 339.439Z" fill="white"/>
<path d="M804.567 749.136L720.38 1000H235.628L319.816 749.136H804.567ZM537.058 0H236.554L0 704.889H300.495L537.058 0Z" fill="white"/>
</svg>
