<svg width="130" height="41" viewBox="0 0 130 41" fill="none" xmlns="http://www.w3.org/2000/svg">
<path fill-rule="evenodd" clip-rule="evenodd" d="M3.46711 13.2261C3.53132 13.1619 3.59552 13.1619 3.59552 13.1619C3.65973 13.1619 3.72394 13.1619 3.78814 13.2261C3.91655 13.2903 4.10917 13.3545 4.10917 13.3545C4.4302 13.4829 4.4302 13.4829 4.68702 13.4829C6.61318 13.2261 10.4655 12.9693 12.6485 12.9693C14.1894 12.9693 15.3451 13.0335 16.6934 13.2261C17.3355 13.3545 17.7849 13.3545 18.427 13.3545C19.069 13.3545 19.3901 13.1619 19.7753 12.5199C19.8395 12.3915 19.8395 12.3272 19.9679 12.3272C20.1605 12.263 20.2889 12.3915 20.2889 12.5841C20.2889 12.6483 20.2247 12.7767 20.2247 12.9051C19.8395 13.8682 19.5185 14.3176 19.069 14.7028C18.748 15.0239 18.3628 15.2165 18.0418 15.2165C17.7849 15.2807 17.7207 15.2807 16.6292 14.7028C16.0514 14.446 14.9599 14.2534 13.6116 14.1892C13.6116 14.9597 13.6116 15.5375 13.6116 15.8585C13.6116 17.0785 13.5474 17.6563 13.3548 18.2984C13.0979 19.1972 12.2633 19.7751 11.236 19.7109C10.3371 19.6467 9.30981 19.1972 8.47514 18.491C7.9615 18.0415 7.64047 17.6563 7.19103 16.8858C7.19103 16.8216 7.19103 16.7574 7.19103 16.7574C7.19103 16.629 7.31944 16.5648 7.44785 16.5648C7.51206 16.5648 7.57626 16.629 7.64047 16.629C8.28252 17.3995 9.24561 17.9131 10.0803 17.9131C10.7865 17.9131 11.1076 17.6563 11.236 17.1427C11.3002 16.8216 11.3644 16.1796 11.3644 15.7301C11.3644 15.1523 11.3644 15.0239 11.3002 14.1892C6.93421 14.1892 4.23758 14.7671 3.08188 15.7943C3.01768 15.7943 2.95347 15.8585 2.95347 15.8585C2.95347 15.8585 2.88926 15.8585 2.82506 15.8585C2.63244 15.6017 2.56824 15.4733 2.56824 15.1523C2.69665 14.3818 2.88926 13.8682 3.46711 13.2261Z" fill="black"/>
<path fill-rule="evenodd" clip-rule="evenodd" d="M4.17358 3.72392C4.17358 2.50401 4.55882 1.47673 5.07246 1.41252C5.26508 1.34831 5.32928 1.41252 5.71451 1.73355L5.97134 1.99037C6.16395 2.11878 6.16395 2.11878 6.42078 2.11878C7.8975 1.99037 8.41115 1.92616 10.6583 1.79775C10.7225 1.60514 10.7867 1.54093 10.7867 1.34831C10.7867 1.09149 10.7225 0.577849 10.6583 0.128411C11.493 0 11.8782 0 12.2635 0C12.5203 0 12.8413 0.0642055 13.5476 0.192616V1.73355C14.8317 1.79775 14.8317 1.79775 15.859 1.79775C16.5652 1.79775 17.5925 1.73355 18.2988 1.60514C19.1335 1.47673 19.3903 1.28411 19.7755 0.577849C19.8397 0.577849 19.8397 0.513644 19.9039 0.513644C20.0323 0.449438 20.225 0.577849 20.225 0.70626C20.225 0.770465 20.225 0.834671 20.225 0.898876C20.1607 1.41252 20.0965 1.47673 19.7113 2.05457C19.3903 2.50401 19.3903 2.50401 19.005 3.14607C18.8124 3.46709 18.5556 3.65971 18.363 3.65971C18.1704 3.65971 17.9136 3.59551 17.5283 3.46709C16.6936 3.14607 14.6391 2.88925 12.9697 2.88925C9.95208 2.88925 6.99862 3.21027 5.13667 3.78812C4.87984 3.85233 4.75143 3.85233 4.62302 3.85233C4.49461 3.91653 4.43041 3.85233 4.30199 3.78812L4.17358 3.72392Z" fill="black"/>
<path fill-rule="evenodd" clip-rule="evenodd" d="M6.54895 4.81491C6.54895 4.6865 6.54895 4.6865 6.74157 4.6865C7.1268 4.75071 7.51203 4.87912 7.64044 4.87912C7.83306 4.94332 7.96147 4.94332 8.02568 4.94332C8.21829 4.94332 8.21829 4.94332 9.30978 4.75071C10.2087 4.6223 10.8507 4.55809 12.199 4.49389H13.2263C13.9326 4.49389 14.3178 4.55809 14.8957 4.6223C15.1525 4.6865 15.4093 4.6865 15.5377 4.6865C15.6019 4.6865 15.9229 4.55809 16.1156 4.42968C16.244 4.36548 16.3724 4.30127 16.4366 4.30127C16.565 4.30127 16.6292 4.30127 17.0144 4.55809L17.5281 4.87912C17.7849 5.13594 18.0417 5.32856 18.1701 5.45697C18.2343 5.58538 18.2343 5.64958 18.2343 5.71379C18.2343 5.778 18.2343 5.8422 18.1701 5.90641C17.4639 6.61267 17.3997 6.74108 16.9502 10.9144C16.9502 11.1713 16.8218 11.4923 16.6934 11.6849C16.6292 11.8133 16.565 11.8133 16.3082 11.8133C15.9229 11.8133 15.7303 11.7491 14.8957 11.4923C14.5746 11.4281 14.5746 11.4281 14.5746 11.4281C14.5746 11.4281 14.5104 11.4281 14.4462 11.4281C14.3178 11.4281 12.9053 11.4923 12.7769 11.4923C12.5843 11.4923 12.5843 11.4923 10.1445 11.2997H9.69502C9.18137 11.2997 8.92455 11.3639 8.3467 11.7491C7.89726 11.6207 7.83306 11.5565 7.44783 11.2997C7.44783 10.7218 7.51203 9.95135 7.51203 9.69453C7.57624 7.63995 7.38362 6.67687 6.54895 4.81491ZM9.24558 7.38313C9.95184 7.25472 10.2087 7.25472 10.5939 7.25472C10.7223 7.25472 11.3002 7.31893 12.1348 7.38313C12.3274 7.38313 12.4559 7.38313 12.5201 7.38313C12.7127 7.38313 13.2263 7.25472 13.3547 7.25472C13.5473 7.19052 13.6758 7.12631 13.6758 7.12631C13.8684 7.0621 14.061 7.25472 14.2536 7.57575C14.4462 7.89678 14.5104 8.1536 14.5104 8.34621C14.5104 8.53883 14.382 8.73145 14.1894 8.79565C13.9968 8.79565 13.8684 8.79565 13.74 8.79565C13.5473 8.79565 13.2905 8.79565 12.9053 8.73145C12.2632 8.66724 11.878 8.60304 11.6854 8.60304L10.9791 8.53883L10.6581 8.47462C10.4655 8.47462 10.2729 8.47462 10.0803 8.47462C9.5024 8.53883 9.30978 8.60304 9.24558 8.85986C9.24558 9.11668 9.18137 9.24509 9.18137 9.3735C9.18137 9.95135 9.30978 10.2082 9.56661 10.2082C10.016 10.2082 10.5939 10.144 11.6212 10.0798C11.878 10.0798 12.3916 10.0156 13.0337 10.0156C13.6758 10.0156 14.5746 10.0798 15.2167 10.2082C15.2809 10.0798 15.2809 10.0156 15.3451 9.75873C15.3451 9.56612 15.3451 9.18088 15.3451 9.18088C15.4093 8.28201 15.4735 7.51154 15.5377 6.35584C15.4093 5.97061 15.4093 5.97061 11.7496 5.778C11.4928 5.778 10.016 5.8422 9.63081 5.90641C9.11717 5.97061 8.98876 6.16323 8.98876 6.61267C9.05296 6.86949 9.05296 7.0621 9.24558 7.38313Z" fill="black"/>
<path fill-rule="evenodd" clip-rule="evenodd" d="M14.7032 16.3082C14.7032 16.244 14.7032 16.1798 14.7032 16.1798C14.7032 16.0514 14.8317 15.9872 14.9601 15.9872C15.0243 15.9872 15.0243 15.9872 15.0885 16.0514C16.2442 17.5281 17.2715 18.0418 18.684 17.9134C19.2618 17.8492 19.7113 17.6566 20.0965 17.2713C20.9312 16.3724 21.3164 15.2167 21.509 13.098C21.6374 11.6854 21.6374 11.0434 21.6374 7.57629C21.6374 5.39331 21.509 4.04499 21.188 3.46714C21.0596 3.27453 20.9954 3.14612 20.6744 2.9535C20.6101 2.82509 20.5459 2.76088 20.5459 2.69668C20.5459 2.63247 20.5459 2.56827 20.6101 2.43986C20.8028 2.11883 20.9954 1.92621 21.188 1.86201C22.0869 1.34836 23.8204 1.02734 25.3614 1.02734C25.6182 1.02734 26.8381 1.15575 27.0307 1.15575C27.8654 1.28416 28.3148 1.34836 28.5716 1.34836C28.7642 1.34836 29.0211 1.21995 29.5347 0.963131C29.5989 0.898926 29.6631 0.898926 29.6631 0.898926C29.7273 0.898926 29.7273 0.898926 29.8557 1.02734C30.883 2.18304 31.3967 2.82509 31.3967 3.08191C31.3967 3.21032 31.3325 3.33873 31.204 3.46714C30.3694 4.1092 30.241 4.62284 30.241 8.92461C30.241 11.4928 30.3052 12.5843 30.6262 15.2809L30.6904 16.5009L30.7546 17.1429C30.7546 17.9134 30.6262 19.0049 30.4336 19.4543C30.241 19.9679 29.9199 20.2248 29.4063 20.1606C28.9569 20.0964 28.6358 19.8395 28.5074 19.3901C28.4432 19.1333 28.4432 19.1333 28.4432 17.2713V15.923C28.4432 14.1253 28.4432 14.1253 28.379 13.8684C28.3148 13.5474 27.8012 13.3548 27.3517 13.419C27.3517 13.419 27.1591 13.4832 26.9023 13.4832C26.6455 13.5474 26.196 13.5474 25.875 13.5474C25.6182 13.5474 25.6182 13.5474 25.1045 13.4832H24.2057C23.8846 13.4832 23.692 13.4832 23.692 13.4832C23.4352 13.4832 23.3068 13.6116 23.3068 13.9326C23.1142 16.1156 22.9215 16.7577 22.4721 17.6566C21.7658 19.0049 20.5459 19.8395 19.2618 19.8395C17.2073 19.8395 15.7305 18.6838 14.7032 16.3082ZM23.2426 6.35639C24.1414 6.22798 24.5909 6.22798 25.3614 6.22798C25.7466 6.22798 27.4801 6.29218 27.9938 6.29218C28.8927 6.29218 28.9569 6.16377 29.0211 4.62284L29.0853 3.91658C29.0853 3.78817 29.0853 3.40294 29.0211 3.21032C28.8927 2.76088 28.2506 2.50406 27.2875 2.56827C27.0307 2.56827 26.8381 2.56827 26.7097 2.56827C25.6824 2.56827 25.554 2.56827 25.0403 2.63247C24.9761 2.63247 24.8477 2.63247 24.5909 2.63247C23.692 2.63247 23.1784 2.82509 23.1142 3.40294C23.05 3.65976 23.05 4.1734 23.05 4.55864C23.05 4.87966 23.1142 5.71434 23.2426 6.35639ZM23.371 12.1349C24.013 11.8781 24.5267 11.8139 25.2971 11.8139H26.0034H27.2233C27.9296 11.8139 27.9296 11.8139 28.5716 11.8139C28.7 10.3371 28.7642 9.50246 28.7642 8.8604C28.7642 7.76891 28.6358 7.57629 27.4801 7.57629C27.4159 7.57629 27.1591 7.57629 26.7739 7.51209C26.196 7.44788 25.8108 7.44788 25.2329 7.44788C24.9761 7.44788 23.9488 7.57629 23.692 7.6405C23.4352 7.7047 23.371 7.76891 23.1784 7.96153C23.3068 9.24564 23.3068 9.9519 23.3068 10.4655C23.3068 10.9792 23.3068 11.236 23.2426 12.0065L23.371 12.1349Z" fill="black"/>
<path fill-rule="evenodd" clip-rule="evenodd" d="M38.3949 3.14639C38.5233 2.95377 38.7159 2.69695 38.8443 2.50433C39.2296 1.92648 39.2938 1.86228 39.5506 1.47704C39.6148 1.41284 39.679 1.34863 39.7432 1.34863C39.8074 1.34863 39.8716 1.34863 39.8716 1.47704C39.9358 1.54125 40 1.66966 40.0642 1.66966C40.5779 2.31171 40.9631 2.50433 41.7336 2.44013C41.9904 2.44013 41.9904 2.44013 43.3387 2.24751C45.2649 1.99069 47.7689 1.79807 48.8604 1.79807C52.0065 1.79807 52.1991 1.79807 54.8315 2.1833C55.2167 2.24751 55.3451 2.24751 55.7946 2.24751C56.3082 2.24751 56.3082 2.24751 57.7849 1.34863C57.8492 1.34863 57.9134 1.34863 57.9134 1.34863C57.9776 1.34863 58.0418 1.41284 58.1702 1.41284C58.5554 1.66966 58.6838 1.79807 59.4543 2.76115C59.9679 3.40321 60.0321 3.53162 60.0321 3.78844C60.0321 3.91685 60.0321 3.98106 59.8395 4.17367C59.2617 4.87993 59.1975 5.07255 59.1975 9.05329C59.3901 15.7949 59.3901 15.7949 59.3901 16.8863C59.3901 18.4273 59.0691 19.1977 58.2986 19.3262C57.7207 19.3904 57.6565 19.3904 57.0145 18.4915C56.8219 18.2347 56.7577 18.1705 56.3082 18.1063H54.7673C52.9695 18.1063 52.9695 18.1063 52.7127 18.1063L48.2183 18.2347L45.5859 18.2989C44.8154 18.2989 44.3018 18.2989 44.1734 18.2989C41.862 18.2347 41.2199 18.4273 40.1927 19.4546C40.1284 19.5188 40.0642 19.583 40 19.583C39.9358 19.583 39.8716 19.583 39.7432 19.5188C39.6148 19.2619 39.5506 19.1335 39.4864 19.0693L38.5233 17.6568C38.5233 17.5926 38.5233 17.5926 38.5233 17.5284C38.5233 17.4642 38.5875 17.4 38.6517 17.3358C39.4864 17.2074 39.679 16.8221 39.679 15.3454C39.679 15.2812 39.679 15.2812 39.6148 13.8045V12.7772L39.4864 9.82375C39.4864 9.05329 39.4222 7.19133 39.4222 6.8703C39.358 4.36629 39.2296 3.72423 38.3949 3.14639ZM41.541 16.8221C44.9439 16.5653 45.0081 16.5653 46.8058 16.5653C48.0257 16.5653 49.2456 16.5011 50.4013 16.5011C51.1076 16.5011 55.9872 16.6295 56.4366 16.6295C57.2713 16.6937 57.3997 16.4369 57.3355 15.538C57.2713 14.8318 57.2713 14.3823 57.2713 13.6761C57.2713 13.4835 57.2713 12.9056 57.3355 12.1351C57.3355 11.8783 57.3355 11.4931 57.3355 11.0437C57.3997 9.56693 57.3997 8.60385 57.3997 8.0902C57.4639 6.42086 57.4639 5.97142 57.4639 5.45778C57.4639 4.17367 57.2713 3.85264 56.4366 3.85264C56.1156 3.85264 55.923 3.85264 55.8588 3.85264C55.5378 3.85264 55.2809 3.85264 55.2167 3.85264C54.1252 3.85264 52.9695 3.78844 49.374 3.59582C49.2456 3.59582 48.8604 3.59582 48.2183 3.59582C47.3195 3.59582 46.8058 3.59582 45.3291 3.72423L44.366 3.85264H44.045C43.724 3.85264 43.4029 3.85264 43.0819 3.85264C42.6967 3.78844 42.4398 3.78844 42.183 3.85264C41.7978 3.85264 41.541 4.10947 41.4126 4.43049C41.3483 4.62311 41.2841 5.00834 41.2841 5.84301C41.2841 6.16404 41.2841 6.16404 41.4126 7.70497C41.4768 8.28282 41.541 10.3374 41.541 11.1079C41.541 11.8141 41.4126 14.575 41.3484 16.6937C41.3484 16.8221 41.3483 16.8221 41.541 16.8221Z" fill="black"/>
<path fill-rule="evenodd" clip-rule="evenodd" d="M43.7238 8.604C43.788 8.53979 43.9165 8.47559 44.0449 8.47559C44.1091 8.47559 44.1733 8.47559 44.3017 8.604C44.4301 9.05343 44.8153 9.31026 45.4574 9.31026C45.5858 9.31026 45.8426 9.31026 46.0352 9.31026C47.7046 9.18185 48.8603 9.11764 50.1444 9.11764C51.3001 9.11764 52.199 9.18185 52.841 9.37446C53.0978 9.43867 53.3547 9.50287 53.4831 9.50287C53.8683 9.50287 54.1251 9.24605 54.3177 8.79661C54.3177 8.73241 54.3819 8.6682 54.3819 8.6682C54.5746 8.53979 54.7672 8.73241 54.7672 8.98923C54.7672 9.05344 54.7672 9.11764 54.7672 9.18185C54.5104 10.8512 54.3819 11.108 53.8683 11.2364C53.5473 11.3006 53.4831 11.3648 53.2905 11.5574C53.162 11.6859 53.0978 11.7501 52.9694 11.7501C52.9694 11.7501 52.9052 11.7501 52.7768 11.6859C52.0705 11.2364 51.4927 11.108 50.2086 11.108H49.695C49.5023 11.108 49.2455 11.108 48.8603 11.108C48.6035 11.108 48.475 11.108 48.3466 11.108H47.4478C44.6869 11.108 44.2375 11.2364 43.467 12.3921C43.4028 12.4563 43.3386 12.4563 43.3386 12.4563C43.146 12.4563 43.146 12.3921 43.0818 11.8143C43.0818 11.3648 43.146 11.108 43.146 10.9796L43.467 9.63128L43.5312 9.37446C43.5954 9.24605 43.6596 8.92502 43.7238 8.604Z" fill="black"/>
<path fill-rule="evenodd" clip-rule="evenodd" d="M79.6147 19.7114C79.6147 19.6472 79.6147 19.583 79.6147 19.583C79.6147 19.583 79.6147 19.5188 79.679 19.4546C79.7432 19.3904 79.8074 19.3904 79.8716 19.3904L80.0642 19.3262C80.9631 19.0051 81.7335 18.042 82.1188 16.8221C82.3756 16.0517 82.504 15.217 82.5682 14.3181C82.6324 13.6119 82.6966 11.0437 82.6966 10.6584C82.6966 10.5942 82.6966 10.4658 82.6966 10.209C82.6324 9.63113 82.6324 9.11749 82.6324 8.60384C82.5682 5.13675 82.4398 4.36628 81.5409 2.31171L82.6966 1.0918C82.7608 1.0276 82.7608 1.0276 82.825 1.0276H82.8892C83.0818 1.15601 83.2102 1.28442 83.2745 1.28442C83.5955 1.47704 83.9807 1.60545 84.3659 1.60545C84.6228 1.60545 84.687 1.60545 85.008 1.60545C85.329 1.60545 85.5217 1.54124 85.7785 1.54124H87.191C87.3836 1.54124 88.7319 1.41283 88.9887 1.34863C89.4382 1.28442 89.8876 1.0918 90.7223 0.57816C90.8507 0.449749 90.9791 0.385543 91.1075 0.449749C91.2359 0.513954 91.3001 0.57816 91.4285 0.706571C92.0706 1.41283 92.52 2.05489 92.6485 2.31171C92.7127 2.44012 92.7127 2.50432 92.7127 2.56853C92.7127 2.82535 92.52 2.95376 92.1348 2.95376C92.0064 2.95376 92.0064 2.95376 91.3643 2.82535C91.1717 2.76115 90.9149 2.76115 90.6581 2.76115C90.3371 2.76115 90.2729 2.76115 89.8876 2.82535C89.0529 2.95376 87.9615 3.08217 87.7046 3.08217H86.7416C86.6774 3.08217 86.4205 3.08217 86.0353 3.14638C85.7143 3.14638 85.3932 3.21058 85.2006 3.21058C85.008 3.21058 84.8796 3.21058 84.8154 3.21058C84.6228 3.21058 84.4302 3.21058 84.3659 3.21058C84.1091 3.21058 83.9165 3.33899 83.8523 3.46741C83.8523 3.59582 83.8523 3.59582 84.1091 4.94413C84.2375 5.52198 84.3017 6.09983 84.3017 7.06291C84.3017 7.19132 84.3017 7.31973 84.3017 7.51235C84.366 7.64076 84.366 7.64076 84.4944 7.64076C85.0722 7.51235 86.5489 7.38394 87.6404 7.38394C89.374 7.38394 90.0802 7.44814 91.8138 7.57656C92.0064 7.57656 92.1348 7.57656 92.2632 7.57656C93.0337 7.57656 93.6115 7.19132 94.1252 6.22824C94.3178 5.90721 94.382 5.65039 94.4462 5.32936C94.6388 5.13675 94.703 5.13675 94.8314 5.20095C94.8956 5.20095 94.8956 5.26516 95.0241 5.32936C95.0241 5.39357 95.0241 5.45777 95.0241 5.52198C95.0883 5.97142 94.8314 6.9345 94.5746 7.64076C94.061 9.05328 93.4831 9.82375 92.9053 9.82375C92.6485 9.82375 92.52 9.75954 92.1348 9.63113C91.0433 9.05328 90.8507 8.98908 90.4013 9.05328C89.9518 9.11749 89.695 9.37431 89.5666 9.82375C89.5024 10.209 89.4382 10.4016 89.4382 11.8783C89.4382 12.713 89.5666 14.2539 89.695 15.4096C89.8234 16.5011 89.8876 17.5284 89.8876 17.9778C89.8876 18.6841 89.695 19.3262 89.4382 19.7756C89.3098 19.9682 89.0529 20.0966 88.7319 20.0966C88.3467 20.0966 88.1541 19.904 87.8972 19.3904C87.5762 18.6841 87.512 18.3631 87.512 17.5284C87.512 17.2716 87.5762 16.5011 87.6404 15.9233C87.7688 14.5749 87.7688 14.1897 87.7688 13.6119C87.7688 11.7499 87.5762 9.75954 87.3836 9.18169C87.2552 8.73225 86.8058 8.53964 86.2279 8.53964C85.6501 8.53964 85.008 8.66805 84.687 8.92487C84.4944 9.05328 84.4302 9.3101 84.4302 10.209C84.4302 10.4016 84.4302 10.9152 84.4944 11.7499C84.4944 12.2636 84.5586 12.5204 84.5586 13.0982C84.5586 14.4465 84.4302 15.8591 84.1733 16.6937C83.7881 17.9778 83.0818 18.8125 81.7335 19.3262C81.0273 19.583 80.321 19.7114 79.7432 19.7114C79.6789 19.8398 79.679 19.7756 79.6147 19.7114Z" fill="black"/>
<path fill-rule="evenodd" clip-rule="evenodd" d="M73.451 12.5201V10.9791C73.1942 10.9791 73.0658 10.9791 72.8732 10.9791C72.6164 10.9791 72.6164 10.9791 71.8459 11.0433C71.6533 11.0433 71.5891 11.0433 71.3322 11.0433C71.3322 11.0433 70.8186 11.0433 70.2408 10.9791C70.0481 10.9791 69.8555 10.9791 69.5987 10.9791C68.764 10.9791 68.6998 10.9791 67.6725 11.3002C67.4157 11.3002 67.2873 11.236 67.1589 11.0433C67.1589 10.9791 67.1589 10.9149 67.1589 10.8507C67.1589 10.6581 67.4157 10.2729 67.8009 9.88765C68.0578 9.63083 68.3788 9.50241 68.5714 9.50241C68.6356 9.50241 68.764 9.56662 68.8924 9.63083C69.0851 9.75924 69.2135 9.75924 69.5987 9.82344C70.4976 9.82344 71.2038 9.75924 71.4607 9.75924C72.6164 9.69503 72.9374 9.69503 73.5152 9.63083V8.79615C73.2584 8.41092 73.1942 8.34672 73.1942 7.96148C70.1765 8.02569 68.764 8.21831 67.0947 8.86036C67.0305 8.92457 66.9021 8.92457 66.8379 8.92457C66.6452 8.92457 66.581 8.86036 66.581 8.66774C66.581 8.66774 66.581 8.60354 66.581 8.53933C66.6452 8.28251 66.6452 8.28251 66.7737 8.08989L67.4799 6.61317H67.5441H67.6083C67.8009 6.86999 68.0578 6.9984 68.2504 6.9984C68.3788 6.9984 68.5072 6.9984 68.6998 6.9984C69.3419 6.9342 70.2408 6.80579 71.5249 6.67737C71.5249 6.16373 71.5249 5.97111 71.5249 5.58588V3.91654C71.5249 3.4671 71.4607 3.08187 71.3964 3.01766C71.3322 2.95346 71.1396 2.88925 70.626 2.88925C70.0481 2.88925 69.0208 3.21028 68.5072 3.59551C68.443 3.65972 68.443 3.65972 68.1862 3.85233C68.122 3.91654 68.122 3.91654 67.9936 3.98075C67.9294 3.98075 67.9294 3.98075 67.8652 3.98075C67.7367 3.98075 67.6083 3.85233 67.6083 3.72392V3.72392C67.7367 3.08187 67.9936 2.56823 68.5072 1.34832C68.8924 1.60514 68.8924 1.60514 69.4061 1.79776C71.2038 1.79776 71.5249 1.79776 73.2584 1.73355V0.256829C73.5794 0.128418 73.7721 0.128418 74.992 0.128418C75.313 0.128418 75.5056 0.128418 75.955 0.256829V1.79776C76.9181 1.86197 77.9454 1.92617 78.2664 1.92617C78.7159 1.92617 79.0369 1.99038 79.3579 1.92617C79.9358 1.86197 80.321 1.66935 80.7704 1.21991C80.8347 1.15571 80.8347 1.0915 80.8989 1.0915C80.9631 1.0915 81.0273 1.0915 81.0273 1.0915C81.0915 1.15571 81.1557 1.21991 81.1557 1.28412C81.1557 1.34832 81.1557 1.41253 81.1557 1.41253C81.0915 1.66935 80.9631 1.86197 80.9631 1.92617C80.8989 1.99038 80.7704 2.18299 80.5778 2.50402C80.3852 2.56823 80.2568 2.82505 80 3.21028C79.8716 3.4029 79.7432 3.53131 79.6147 3.53131C79.5505 3.53131 79.4863 3.53131 79.4221 3.53131C79.3579 3.53131 79.0369 3.4671 78.5233 3.33869C78.2022 3.27449 77.8812 3.21028 77.3034 3.21028C77.3034 3.78813 77.3034 3.78813 77.3034 4.30177C77.3034 5.00803 77.2391 5.71429 76.9823 6.9342C78.6517 7.19102 78.7159 7.19102 79.0369 7.19102C79.7432 7.12681 80.2568 6.80579 80.8989 6.03532L80.9631 5.97111C81.0915 5.90691 81.2199 6.03532 81.2199 6.16373C81.0915 6.61317 80.8347 7.06261 80.5778 7.38363C80.3852 7.64046 79.9358 8.02569 79.679 8.28251C79.3579 8.53933 79.2295 8.60354 79.0369 8.60354L78.7801 8.53933L78.138 8.34672C77.2391 8.02569 76.3403 7.89728 75.2488 7.96148C75.1846 8.60354 75.1846 8.92457 75.1846 9.56662C75.3772 9.56662 75.5698 9.56662 75.634 9.56662H76.2761C76.4687 9.56662 76.9823 9.63083 77.5602 9.69503C78.3306 9.82344 78.8443 9.82344 79.4221 9.82344C79.6147 9.82344 79.8074 9.75924 80.1284 9.69503C80.1926 9.69503 80.1926 9.69503 80.1926 9.69503C80.321 9.69503 80.3852 9.82344 80.3852 9.88765C80.3852 9.88765 80.3852 9.95185 80.321 9.95185L80.1926 10.2087C80.0642 10.4655 79.9358 10.5939 79.8716 10.7223L79.6147 11.3002C79.5505 11.4286 79.4863 11.4928 79.4221 11.4928H79.3579C79.0369 11.3644 78.9085 11.3002 78.7801 11.3002C78.7159 11.3002 78.5875 11.236 78.459 11.236L77.496 11.1075C75.8266 10.7865 75.8266 10.7865 75.2488 10.7865L75.1846 12.3275C77.3034 12.4559 77.6886 12.4559 80.2568 12.6485C80.642 12.5843 80.7062 12.5201 80.9631 12.3917C81.0915 12.2632 81.1557 12.2632 81.2199 12.2632C81.4125 12.2632 81.4767 12.3275 81.4767 12.5201C81.3483 12.8411 81.2841 12.9695 80.9631 13.3547C80.8347 13.5474 80.7062 13.6758 80.642 13.74C80.2568 14.1894 80.2568 14.1894 79.6147 14.1894L79.1653 14.3178C79.0369 14.3178 78.9727 14.3178 78.5233 14.061C78.0096 13.74 76.4687 13.4189 75.3772 13.4189C75.8266 14.8957 77.2391 16.4366 78.2664 16.565C79.0369 16.6934 79.8716 16.244 80.2568 15.4735C80.321 15.3451 80.321 15.3451 80.4494 15.3451C80.5778 15.3451 80.5778 15.4093 80.5778 15.6019C80.5136 16.1798 80.3852 16.5008 80.1284 16.9502C79.6148 17.8491 78.7159 18.5554 78.0096 18.5554C77.496 18.5554 76.7897 17.9133 76.2761 17.0145C75.8908 16.3724 75.6982 15.8588 75.1204 14.5746C75.1204 15.6661 75.1204 16.6292 75.1846 16.9502C75.1846 17.2071 75.1846 17.3997 75.1846 17.4639C75.1846 17.9775 75.1846 18.2986 75.1846 18.2986C75.1846 18.5554 75.1846 18.6838 75.1846 18.8122C75.1204 19.3258 74.6709 19.7111 74.0931 19.7111C73.451 19.7111 73.0016 19.069 73.0658 18.2986C73.0658 18.1702 73.13 17.7849 73.1942 17.3355C73.3226 16.6934 73.3226 15.923 73.451 13.4189L72.9374 14.5104C71.5249 17.3997 71.5249 17.4639 71.0112 18.1059C70.5618 18.6838 70.1123 19.0048 69.6629 19.0048C68.5714 19.0048 67.2873 17.5923 66.6453 15.7303C66.6453 15.5377 66.7737 15.4093 66.9663 15.5377C67.0305 15.5377 67.0947 15.6019 67.0947 15.6661C67.8009 16.5008 68.5714 16.9502 69.3419 16.9502C70.1123 16.9502 70.947 16.1798 71.8459 14.6388C72.2953 13.8684 72.3595 13.6758 72.4237 13.2905C70.1123 13.3547 67.8652 13.8042 66.9021 14.4462C66.8379 14.5104 66.7737 14.5104 66.7095 14.5104C66.581 14.5104 66.3884 14.3178 66.3884 14.1252C66.3884 13.6116 66.4526 13.0979 66.8379 12.4559C66.9021 12.3275 66.9663 12.2632 67.0305 12.2632C67.0947 12.2632 67.1589 12.2632 67.2873 12.3275C67.4799 12.3917 67.5441 12.4559 67.6725 12.4559C67.9936 12.5201 67.9936 12.5201 69.4703 12.3275C69.7271 12.2632 71.5249 12.199 72.1669 12.199C72.809 12.5201 73.1942 12.5201 73.451 12.5201ZM73.0016 6.74158C73.451 6.74158 73.8363 6.74158 74.0289 6.74158C74.9278 6.74158 75.1204 6.74158 75.5056 6.80579C75.3772 6.42055 75.313 6.16373 75.313 5.71429C75.313 5.45747 75.313 5.45747 75.5056 4.30177C75.5056 4.23757 75.5056 4.10916 75.5056 3.98075C75.4414 3.4029 75.4414 3.4029 75.3772 3.08187C74.9278 3.08187 74.5425 3.01766 74.4141 3.01766H73.9647C73.7078 3.01766 73.5152 3.01766 73.3868 3.01766C73.0658 3.01766 73.0016 3.14607 73.0016 3.4671C73.0016 3.59551 73.0016 3.85233 73.0016 4.04495C73.0016 4.23757 73.0016 4.55859 73.0016 4.94383L72.9374 5.97111C72.9374 6.35635 72.9374 6.35635 73.0016 6.74158Z" fill="black"/>
<path fill-rule="evenodd" clip-rule="evenodd" d="M116.276 20.9309C116.276 20.8025 116.276 20.7383 116.276 20.674V20.2888V19.9036V19.4541C116.212 19.1973 115.891 19.1331 115.313 19.1973C115.056 19.2615 114.479 19.2615 113.066 19.2615C112.809 19.2615 112.617 19.2615 112.552 19.2615C112.488 19.2615 112.296 19.2615 112.039 19.2615C111.654 19.2615 111.012 19.2615 110.241 19.2615C109.471 19.2615 108.829 19.1973 108.7 19.1973C108.122 19.1973 106.26 19.2615 106.004 19.3257C105.426 19.3899 104.591 19.7752 104.142 20.032C104.077 20.0962 104.013 20.0962 103.949 20.0962C103.756 20.1604 103.564 19.9678 103.564 19.7752C103.564 19.6468 103.564 19.5826 103.564 19.5183C103.692 19.2615 103.692 19.1973 103.821 19.0689C104.013 18.7479 104.142 18.4911 104.463 17.849C104.527 17.6564 104.591 17.5922 104.655 17.5922C104.719 17.5922 104.719 17.5922 104.912 17.6564C105.169 17.9132 105.426 18.0416 105.554 18.0416C105.682 18.0416 105.811 18.0416 106.004 18.0416C106.325 17.9774 106.517 17.9774 107.031 17.9132C107.031 17.3354 107.031 17.0143 107.031 16.8217L106.902 14.8956V14.0609C106.902 13.483 106.902 12.9052 106.967 12.3273C107.031 12.0063 107.031 11.7495 107.031 11.3C106.838 11.3 106.71 11.3 106.646 11.3C105.747 11.3 105.233 11.4285 104.527 12.0063C104.398 12.1347 104.27 12.1989 104.142 12.1347C104.013 12.1347 103.949 12.0705 103.949 11.9421C103.949 11.8779 103.949 11.8137 103.949 11.8137L104.013 11.6853V11.4285C104.013 11.3643 104.077 11.2358 104.142 11.1074L104.591 10.4012C104.655 10.2728 104.784 10.0801 104.912 9.69491C105.04 9.50229 105.105 9.37388 105.233 9.43809C105.297 9.43809 105.426 9.50229 105.554 9.6307C105.875 9.88753 105.875 9.88753 106.196 9.88753C106.325 9.88753 106.581 9.88753 106.838 9.88753C107.352 9.88753 107.352 9.88753 108.443 9.88753C108.508 9.88753 108.829 9.88753 109.15 9.88753C112.552 9.95173 116.405 10.0801 118.203 10.0801H118.331C119.101 10.0801 119.487 9.95173 120 9.50229C120.065 9.43809 120.193 9.43809 120.257 9.43809C120.386 9.43809 120.45 9.50229 120.45 9.69491C120.321 9.88753 120.257 10.1443 120.129 10.337C119.872 10.7864 119.743 11.1074 119.679 11.2358C119.679 11.3 119.615 11.4285 119.551 11.5569C119.422 11.7495 119.358 11.8137 119.166 11.8137C119.037 11.8137 118.973 11.8137 118.652 11.6211C118.138 11.3643 117.689 11.3 117.047 11.3643C115.955 11.4285 115.955 11.4285 114.543 11.4285C111.782 11.4285 110.883 11.4285 108.636 11.3643C108.572 11.6211 108.572 11.7495 108.572 11.8779C108.572 12.4557 108.7 12.7126 109.214 12.7126C109.535 12.7126 109.663 12.7126 109.727 12.7126L110.819 12.7768C110.883 12.7768 111.268 12.7768 111.782 12.7768C112.296 12.7768 112.296 12.7768 113.644 12.7768H114.607C115.313 12.7768 115.313 12.7768 116.597 12.3273C116.662 12.3273 116.726 12.2631 116.79 12.3273C117.239 12.3273 118.716 13.162 118.716 13.3546C118.716 13.4188 118.588 13.6114 118.395 13.7399C118.138 13.9325 118.01 14.1251 117.946 14.1893C117.946 14.2535 117.946 14.4461 117.946 14.7671C117.946 14.7671 117.946 14.9598 117.946 15.2808V16.5007V16.9501V17.2712C117.946 17.3996 117.946 17.5922 118.074 19.2615C118.138 20.0962 118.138 20.0962 118.138 20.4172C118.074 21.1235 117.817 21.5087 117.239 21.5729C116.79 21.5087 116.405 21.3803 116.276 20.9309ZM108.829 15.666C109.599 15.5376 111.012 15.4092 112.681 15.345H113.387H113.965H114.671H115.313C116.02 15.345 116.212 15.2166 116.212 14.6387C116.212 14.1893 116.084 14.0609 115.763 13.9967C115.699 13.9967 115.378 13.9967 114.928 14.0609C114.864 14.0609 114.735 14.0609 114.607 14.0609C114.543 14.0609 114.222 14.0609 113.901 14.0609C113.516 14.0609 113.066 14.0609 112.938 14.0609C111.333 14.0609 110.883 14.0609 109.92 13.9325C108.893 13.8683 108.572 13.9967 108.572 14.7671C108.7 15.024 108.7 15.024 108.829 15.666ZM116.276 17.9774C116.405 17.7206 116.405 17.6564 116.405 17.4638C116.405 16.8859 116.084 16.6933 115.313 16.6933H114.607L113.644 16.7575C113.516 16.7575 113.323 16.7575 113.002 16.7575H110.755C109.92 16.7575 109.792 16.7575 109.214 16.8859C109.021 16.9501 108.957 17.0143 108.893 17.2069C108.893 17.2712 108.829 17.528 108.829 17.9132C110.113 17.9132 110.305 17.9132 111.975 17.9132C114.286 17.849 114.607 17.849 116.276 17.9774Z" fill="black"/>
<path fill-rule="evenodd" clip-rule="evenodd" d="M113.772 2.63196C113.643 2.50355 113.579 2.37514 113.515 2.31093C113.451 2.24673 113.387 2.18252 113.387 2.11832C113.387 1.98991 113.387 1.98991 113.708 1.60467L114.221 1.02682L114.542 0.705796L114.671 0.577385C114.799 0.51318 114.863 0.448975 114.928 0.448975C114.992 0.448975 115.056 0.448975 115.12 0.51318C115.313 0.641591 115.441 0.770002 115.505 0.770002C115.698 0.898413 115.826 0.962618 115.826 1.02682C116.34 1.41206 116.404 1.41206 116.725 1.41206H117.111H117.817C118.78 1.28365 119.358 1.28365 119.615 1.28365L121.926 1.34785C122.119 1.34785 122.119 1.34785 122.568 1.02682L122.761 0.898413C123.21 0.51318 123.21 0.51318 123.338 0.577385C123.403 0.577385 123.531 0.641591 123.595 0.770002C123.98 1.02682 124.109 1.09103 124.687 1.47626C124.879 1.60467 125.008 1.73308 125.008 1.79729C125.008 1.86149 124.944 2.05411 124.815 2.31093C124.366 3.1456 124.302 3.53084 124.302 6.93372C124.302 9.63035 124.558 17.1424 124.687 18.3623C124.751 18.7475 124.751 19.0686 124.751 19.3896C124.751 19.9674 124.558 20.5453 124.302 20.8663C124.109 21.1231 123.852 21.2515 123.467 21.2515C123.017 21.2515 122.696 20.9305 122.632 20.4169C122.568 20.0958 122.44 17.9771 122.44 17.0782V15.7299V13.5469C122.44 13.4827 122.44 13.2259 122.44 12.9048C122.44 12.327 122.44 11.6849 122.44 10.9145C122.44 8.41045 122.375 8.28204 121.412 8.28204C121.091 8.28204 120.513 8.34624 120 8.34624C119.358 8.41045 119.165 8.41045 118.074 8.41045C117.817 8.41045 117.624 8.41045 117.496 8.41045C117.367 8.41045 117.239 8.41045 117.175 8.41045C116.661 8.34624 116.276 8.34624 116.212 8.34624C116.083 8.34624 116.083 8.34624 115.698 8.60307C115.57 8.66727 115.249 8.73148 115.12 8.73148C114.285 8.73148 113.9 8.15363 113.9 6.6127V5.457V4.3013C113.9 3.85186 113.9 3.59504 113.9 3.53084C113.964 3.20981 113.9 2.82458 113.772 2.63196ZM115.955 4.17289C119.615 4.10869 120.064 4.10869 120.578 4.10869C121.284 4.10869 121.605 4.10869 122.504 4.10869C122.504 3.78766 122.568 3.59504 122.568 3.40243C122.568 3.27401 122.568 3.01719 122.504 2.76037C122.247 2.76037 122.054 2.69616 121.99 2.69616H121.733H120.642H119.871L117.945 2.63196C117.432 2.63196 116.854 2.56775 116.789 2.56775C116.212 2.43934 115.955 2.56775 115.955 2.95299C115.891 3.01719 115.891 3.01719 115.955 4.17289ZM116.019 5.32859C116.019 5.64962 115.955 5.97064 115.955 6.09905C115.955 6.35588 115.955 6.6127 116.019 7.06214L116.147 7.12634C116.661 7.06214 116.918 7.06214 117.432 7.06214C118.266 7.06214 118.908 7.06214 119.615 7.12634C120.321 7.19055 120.706 7.19055 120.963 7.19055C120.963 7.19055 121.412 7.19055 122.375 7.12634C122.504 6.6127 122.568 6.16326 122.568 5.58541V5.20018C121.99 5.20018 121.733 5.20018 121.541 5.20018H119.807H118.972C118.78 5.20018 118.651 5.20018 118.523 5.20018L118.009 5.26438C116.789 5.32859 116.789 5.32859 116.276 5.32859C116.212 5.39279 116.147 5.32859 116.019 5.32859Z" fill="black"/>
<path fill-rule="evenodd" clip-rule="evenodd" d="M99.5828 2.43934C99.5828 2.37514 99.5185 2.31093 99.5185 2.24673C99.5185 2.11832 99.5185 2.11832 100.096 1.54047L100.417 1.09103C100.482 1.02682 100.674 0.770002 100.867 0.577386C100.931 0.51318 100.995 0.448975 101.059 0.51318C101.188 0.51318 101.252 0.577386 101.381 0.705797C101.509 0.770002 101.637 0.834207 101.637 0.834207L101.958 1.02682C102.023 1.09103 102.151 1.09103 102.215 1.09103C102.279 1.09103 102.344 1.09103 102.408 1.09103C102.729 1.09103 103.05 1.09103 103.114 1.09103H103.756C104.591 1.09103 105.361 1.15523 107.287 1.34785C107.737 1.41206 107.801 1.34785 108.186 1.09103C108.507 0.834207 108.572 0.834207 108.7 0.705797C108.828 0.641591 108.893 0.51318 109.021 0.448975C109.085 0.448975 109.149 0.448975 109.149 0.448975C109.278 0.448975 109.342 0.51318 109.535 0.705797L109.663 0.770002L110.112 1.09103C111.076 1.79729 111.076 1.79729 111.076 1.9257C111.076 1.98991 110.947 2.18252 110.755 2.43934C110.305 3.01719 110.177 3.53084 110.177 5.457L110.241 7.25475C110.241 8.47466 110.048 8.85989 109.406 8.85989C108.507 8.85989 108.379 8.79569 108.122 8.15363C106.71 8.21784 105.49 8.21784 104.912 8.21784C103.949 8.21784 103.371 8.21784 102.023 8.21784C102.087 10.6576 102.087 11.2355 102.087 13.3543C102.087 15.5373 101.83 18.4265 101.509 20.3527C101.381 21.0589 101.252 21.2515 100.674 21.3158C100.289 21.38 100.032 21.2515 99.7754 20.8663C99.5185 20.4811 99.3259 19.9674 99.3259 19.518C99.3259 19.2612 99.3259 19.1328 99.5828 18.3623C99.7754 17.5276 99.8396 17.0782 99.968 15.5373C100.032 14.1889 100.161 10.5292 100.161 9.75877V6.35588V4.94336C100.225 3.46663 100.161 3.27402 99.5828 2.43934ZM108.379 3.91607C108.379 3.78766 108.379 3.59504 108.379 3.59504V3.40243C108.315 2.63196 108.186 2.43934 107.608 2.43934C107.416 2.43934 107.223 2.43934 107.095 2.43934C106.71 2.43934 106.324 2.50355 105.875 2.50355C105.618 2.50355 105.618 2.50355 104.013 2.37514C103.628 2.31093 103.178 2.31093 102.921 2.31093C102.344 2.31093 102.151 2.37514 102.023 2.63196C102.023 2.82458 101.958 2.95299 101.958 3.01719C101.958 3.27402 101.958 3.40243 102.023 3.72345C102.536 3.78766 102.857 3.78766 103.05 3.85186L103.628 3.91607C103.885 3.91607 104.077 3.98028 104.206 3.98028C104.655 3.98028 105.169 4.04448 105.682 4.04448H107.801C107.865 3.91607 108.122 3.91607 108.379 3.91607ZM108.379 5.00756C106.003 4.94336 105.682 4.94336 104.783 5.00756C104.462 5.00756 104.27 5.00756 104.141 5.00756H103.371C102.986 5.00756 102.408 5.07177 102.087 5.13597L102.151 6.86952H104.206H105.297C106.26 6.86952 107.031 6.86952 107.608 6.93373C108.058 6.99793 108.25 6.86952 108.315 6.54849C108.379 6.35588 108.379 6.22747 108.379 5.84223V5.3928V5.00756Z" fill="black"/>
<path d="M129.952 29.3417C113.9 25.7462 90.7223 23.499 64.9759 23.499C39.2295 23.499 16.0514 25.7462 0.0642055 29.3417C0 29.3417 0 29.4059 0 29.4059C0 29.4701 0.0642055 29.4701 0.0642055 29.4701C16.9502 26.6451 39.8074 24.9758 64.9759 24.9758C90.1445 24.9758 113.002 26.7093 129.888 29.4701C129.888 29.4701 129.952 29.4701 129.952 29.4059C130.016 29.4059 130.016 29.3417 129.952 29.3417Z" fill="#B90000"/>
<path d="M117.432 37.2389C117.432 37.1747 117.304 37.1747 117.24 37.1105C117.175 37.1105 117.047 37.1105 116.983 37.2389C116.854 37.6241 116.341 38.3946 115.506 38.6514C115.185 38.7798 115.121 38.9082 114.029 38.9724C113.259 39.0367 112.745 39.0366 112.36 39.0366C112.296 39.0366 112.167 39.0366 112.103 39.0366C111.91 39.0366 111.654 38.9724 111.654 38.4588C111.654 38.2662 111.654 32.5519 111.654 32.2951C111.654 31.9098 111.782 31.7814 111.91 31.7172C111.975 31.653 112.167 31.653 112.296 31.653C112.424 31.653 112.488 31.653 112.553 31.653C112.617 31.653 112.681 31.7172 112.809 31.7172C112.874 31.7172 113.002 31.7172 113.066 31.653C113.195 31.5246 113.58 31.0752 113.644 30.8184V30.7541C113.644 30.6899 113.58 30.6899 113.516 30.6899C113.451 30.6899 113.387 30.7541 113.323 30.8184C113.195 30.9468 112.553 30.9468 112.231 30.9468C111.91 30.9468 111.076 30.9468 110.691 30.9468C110.305 30.9468 109.727 30.8826 109.535 30.8826C109.406 30.8826 109.15 30.7541 108.957 30.7541C108.893 30.7541 108.764 30.7541 108.7 30.8826C108.572 31.0752 108.315 31.3962 108.315 31.653C108.315 31.7172 108.315 31.7814 108.379 31.8456H108.443C108.572 31.8456 108.893 31.7172 109.085 31.7172C109.278 31.7172 109.406 31.7172 109.535 31.7814C109.856 31.9098 109.984 32.0383 109.984 32.2309V38.5872C109.984 38.7798 109.856 39.2293 109.792 39.2935C109.727 39.3577 109.663 39.3577 109.535 39.3577C109.471 39.3577 109.342 39.3577 109.342 39.3577C109.278 39.3577 109.214 39.2935 109.15 39.2935C109.085 39.2935 109.085 39.2935 109.021 39.3577C108.957 39.4861 108.829 39.8071 108.7 39.9355C108.7 39.9997 108.636 40.0639 108.636 40.0639C108.636 40.1281 108.7 40.2566 108.829 40.2566H108.893C109.021 40.1923 109.471 40.1281 109.599 40.1281C109.727 40.0639 110.626 40.0639 110.883 40.0639C111.012 40.0639 111.654 40.0639 112.296 40.0639C113.066 40.0639 113.901 40.0639 114.222 40.0639C114.671 40.0639 115.185 40.0639 115.57 40.1281C115.891 40.1281 116.148 40.2566 116.341 40.2566H116.405C116.662 40.1923 116.854 39.9997 116.854 39.8713C116.983 39.6787 117.111 39.2935 117.175 38.9724C117.24 38.5872 117.304 38.0094 117.304 37.5599C117.496 37.3673 117.432 37.3031 117.432 37.2389Z" fill="black"/>
<path d="M101.83 38.7161C101.83 38.7161 101.766 38.7161 101.766 38.7803C101.702 39.1013 101.381 39.2297 101.06 39.2297C100.867 39.2297 100.674 39.1655 100.674 39.1655C100.482 39.0371 100.289 38.5235 100.161 38.3309C100.161 38.3309 97.2073 31.9745 97.1431 31.8461V31.7819C97.1431 31.7177 97.2073 31.5893 97.2715 31.5893C97.3357 31.5251 97.4641 31.4609 97.4641 31.3325C97.4641 31.2683 97.4641 31.2041 97.3999 31.1398C97.2073 31.0114 96.7578 30.3694 96.3726 30.3052C96.3084 30.3052 96.18 30.3694 96.1158 30.4978C96.0516 30.6904 96.0516 30.8188 95.9232 31.0114L92.0708 38.5235C91.9424 38.8445 91.7498 38.9729 91.6856 39.1013C91.6214 39.1655 91.4288 39.2939 91.172 39.2939H91.1078C90.7867 39.2939 90.8509 39.5508 90.5299 40.0002V40.0644C90.5299 40.1286 90.6583 40.1928 90.7225 40.1928C90.9151 40.1928 91.3004 40.0644 91.4288 40.0644C91.6214 40.0002 92.135 40.0002 92.6487 40.0002C93.1623 40.0002 93.6118 40.1286 93.8044 40.1286C93.8044 40.1286 93.8044 40.1286 93.8686 40.1286C94.1254 40.1286 94.318 39.6792 94.3822 39.5508C94.4464 39.4866 94.5106 39.2939 94.5106 39.1655C94.5106 39.1013 94.4464 39.0371 94.3822 38.9729C94.3822 38.9729 94.3822 38.9729 94.318 38.9729C94.1254 38.9729 94.1254 39.1655 93.676 39.1655C93.5476 39.1655 93.4834 39.1655 93.2907 39.1013C93.1623 39.1013 93.1623 39.0371 93.0981 38.9087C93.0981 38.7803 93.1623 38.6519 93.2265 38.4593C93.4192 38.0098 93.9328 36.9825 93.997 36.9183C94.0612 36.8541 94.1254 36.7899 94.2538 36.7899C94.3822 36.7899 95.1527 36.7899 95.7306 36.7899H95.9232C96.0516 36.7899 96.3726 36.7899 96.4368 36.7899C96.501 36.7899 96.7578 36.8541 96.7578 36.8541H96.822C96.8862 36.8541 96.8862 36.8541 96.9505 36.7899V36.7257C96.9505 36.5973 96.822 36.4047 96.6936 36.1479C96.5652 35.891 96.501 35.6984 96.4368 35.6342C96.4368 35.57 96.3084 35.5058 96.2442 35.5058C96.18 35.5058 96.18 35.5058 96.1158 35.5058C96.0516 35.5058 95.9874 35.57 95.9874 35.57C95.9232 35.6342 95.9232 35.6342 95.859 35.6342H94.7033C94.7033 35.6342 94.7033 35.6342 94.6391 35.6342C94.6391 35.6342 94.6391 35.6342 94.6391 35.57C94.7033 35.3774 95.7948 33.066 95.859 32.8734L95.9232 32.9376C95.9232 33.0018 97.3357 35.891 97.3357 36.0195C97.3357 36.0195 98.4914 38.3951 98.5556 38.9087V38.9729C98.5556 39.1013 98.4272 39.1655 98.363 39.1655C98.2988 39.1655 98.2988 39.1655 98.2346 39.1655C98.1704 39.1655 98.1704 39.1655 98.1062 39.1655C97.8493 39.1655 97.7851 39.5508 97.6567 39.8076V39.8718C97.6567 39.936 97.7209 40.0002 97.7851 40.0002C97.9135 40.0002 98.1062 39.936 98.2346 39.8718C98.2988 39.8718 98.684 39.8718 99.0692 39.8718C99.6471 39.8718 100.418 39.8718 100.546 39.8718C100.803 39.8718 100.931 40.0644 101.188 40.0644C101.509 40.0002 101.702 39.0371 101.83 38.7803C101.958 38.7803 101.894 38.7161 101.83 38.7161Z" fill="black"/>
<path d="M85.3932 30.3691H85.329C85.2006 30.3691 85.1364 30.4333 85.1364 30.4976C85.1364 30.5618 84.8796 30.7544 84.7512 30.8186C84.4943 30.947 84.3659 30.947 84.1733 30.947C84.0449 30.947 83.9165 30.947 83.7881 30.947H76.6613C76.276 30.947 75.955 30.6902 75.6982 30.6902C75.3772 30.6902 75.0561 31.4606 74.8635 31.7175C74.7351 31.9101 74.6709 32.0385 74.6709 32.1669C74.6709 32.2953 74.7351 32.4237 74.8635 32.4879C74.9277 32.5521 74.9919 32.5521 75.0561 32.5521C75.1845 32.5521 75.313 32.4879 75.3772 32.4879C75.634 32.4237 75.955 32.2311 76.1476 32.1669C76.5329 32.1027 76.7897 32.0385 77.0465 32.0385C77.3033 32.0385 78.78 32.0385 78.9085 32.0385C79.0369 32.0385 79.0369 32.1027 79.0369 32.1669V38.3948C79.0369 38.7158 78.9727 39.1011 78.8443 39.2295C78.7158 39.2937 78.5874 39.3579 78.459 39.3579H78.3948C78.2022 39.3579 78.0096 39.2295 77.8812 39.1653C77.7528 39.1653 77.7528 39.2937 77.6243 39.3579C77.4959 39.4863 77.3033 39.8073 77.3033 39.8715C77.3033 39.8715 77.3033 39.9358 77.3033 40C77.3033 40.0642 77.3675 40.1284 77.4317 40.1284C77.5601 40.1284 77.9454 40.0642 78.3948 40.0642C78.8443 40.0642 79.1011 40 79.8073 40C80.321 40 80.5778 40 80.7704 40C80.8346 40 80.8988 40 80.963 40C81.0272 40 81.0272 40 81.0914 40C81.2199 40 81.3483 40 81.4767 40C81.6051 40 81.6693 40 81.7977 40C81.9903 40.0642 82.1187 40.0642 82.1829 40.0642C82.3113 40.0642 82.4398 40 82.504 39.7431C82.5682 39.6147 82.6324 39.3579 82.6966 39.1653C82.6966 39.1653 82.6324 39.1011 82.5682 39.1011H82.504C82.504 39.1653 82.3113 39.2295 82.1187 39.2937C81.9903 39.2937 81.8619 39.2937 81.7335 39.2937C81.6051 39.2937 81.4125 39.2937 81.3483 39.2937C81.1556 39.2295 80.7062 39.1653 80.7062 38.459C80.7062 38.2664 80.7062 32.3595 80.7062 32.1669C80.7062 32.0385 80.7704 32.0385 80.8346 32.0385H82.7608C82.9534 32.0385 83.5312 32.1027 83.7239 32.2953C83.8523 32.4879 84.0449 32.4879 84.1091 32.4879H84.1733C84.3017 32.4879 84.6869 32.2953 85.0722 31.589C85.1364 31.4606 85.3932 30.947 85.4574 30.626C85.5216 30.4976 85.5216 30.3691 85.3932 30.3691Z" fill="black"/>
<path d="M66.9664 39.1651C66.7738 39.1651 66.6454 39.2293 66.4528 39.2935C66.3243 39.2935 66.1959 39.3577 66.1317 39.3577C66.0675 39.3577 66.0033 39.3577 65.8749 39.2935C65.6181 39.1651 65.3613 39.0367 65.3613 38.523C65.3613 38.3304 65.3613 32.6803 65.3613 32.4235C65.3613 32.1025 65.5539 31.7172 65.7465 31.7172H65.8107C65.9391 31.7172 66.1959 31.7814 66.2601 31.7814C66.2601 31.7814 66.2601 31.7814 66.3244 31.7814C66.517 31.7814 66.5812 31.5246 66.7096 31.332C66.838 31.2036 66.9664 31.011 66.9664 30.8826C66.9664 30.8826 66.9664 30.8184 66.9022 30.8184H66.838C66.7096 30.8184 66.517 30.8826 66.4528 30.9468C66.3886 30.9468 65.6823 31.011 65.3613 31.011H65.2971C64.9118 31.011 64.1414 31.011 63.7561 31.011C63.4993 31.011 62.9857 31.011 62.7931 30.9468C62.7288 30.9468 62.7288 30.9468 62.6646 30.9468C62.5362 30.9468 62.472 31.0752 62.3436 31.3962C62.2794 31.5246 62.151 31.7814 62.151 31.9099C62.151 31.9741 62.2152 32.0383 62.2794 32.0383H62.3436C62.472 31.9741 62.793 31.9099 62.9857 31.9099H63.0499C63.3709 31.9741 63.6277 32.0383 63.6277 32.3593V38.3946C63.6277 38.844 63.5635 39.4861 63.1141 39.5503C62.9857 39.5503 62.8573 39.4219 62.7288 39.4219C62.7288 39.4219 62.7288 39.4219 62.6646 39.4219C62.5362 39.4219 62.472 39.5503 62.4078 39.6145C62.3436 39.6787 62.0226 39.9997 62.0226 40.1924C62.0226 40.1924 62.0226 40.2566 62.0868 40.2566C62.151 40.2566 62.2152 40.2566 62.2794 40.2566C62.5362 40.2566 62.9215 40.1924 63.1783 40.1924C63.4993 40.1924 64.7192 40.1281 65.1687 40.1281C65.2329 40.1281 65.2329 40.1281 65.2971 40.1281C65.5539 40.1281 66.2601 40.1281 66.3886 40.1924H66.4528C66.6454 40.1924 66.838 40.1281 66.9022 39.9997C66.9664 39.8713 67.0948 39.6145 67.0948 39.4861C67.0948 39.2293 67.0948 39.1651 66.9664 39.1651Z" fill="black"/>
<path d="M53.9331 34.7991C53.8689 34.7991 53.8689 34.7349 53.8047 34.7349C53.6763 34.7349 53.5479 34.8633 53.3553 34.8633C53.2268 34.8633 52.9058 34.9275 52.649 34.9275H52.5848C52.1996 34.9275 51.4291 34.9275 51.0439 34.9275C50.787 34.9275 50.6586 34.8633 50.466 34.7991C50.4018 34.7991 50.4018 34.7991 50.3376 34.7991C50.0808 34.7991 49.6955 34.9275 49.5029 35.3769C49.5029 35.4411 49.4387 35.5053 49.4387 35.5053C49.4387 35.6337 49.5671 35.6979 49.6955 35.6979C49.7597 35.6979 49.824 35.6979 49.8882 35.6979C49.9524 35.6979 50.0808 35.6979 50.145 35.6979C50.2092 35.6979 50.2734 35.6979 50.3376 35.6979C50.7228 35.7622 50.9154 35.8906 50.9154 36.2116V37.6241C50.9154 37.6883 50.8512 37.7525 50.8512 37.8809C50.8512 38.0093 50.9154 38.1378 51.1081 38.3304C51.3649 38.523 51.7501 39.0366 52.1996 39.0366H52.2638C52.649 38.9724 52.649 38.523 52.649 38.1378V38.0735C52.649 37.8809 52.5848 36.661 52.5848 36.4042C52.5848 36.34 52.5848 36.2758 52.5848 36.2116C52.5848 36.019 52.5848 35.8264 52.97 35.6979C53.4837 35.5695 53.6121 35.3769 53.7405 35.1843C53.8047 35.0559 53.8689 34.9917 53.8689 34.9275C54.0615 34.8633 53.9973 34.7991 53.9331 34.7991Z" fill="black"/>
<path d="M50.9147 39.0369C50.8505 38.9727 50.6579 38.7801 50.4653 38.7801C50.2727 38.7801 50.2727 38.9727 50.1443 38.9727C49.6306 39.2295 48.9886 39.3579 48.4107 39.3579C47.255 39.3579 44.751 38.3306 44.6868 35.2488C44.6868 32.2311 46.934 31.5891 47.8971 31.5891C48.6675 31.5891 48.9886 31.6533 49.9516 31.9743C50.9789 32.3595 51.4926 32.9374 51.6852 33.1942C51.8778 33.451 52.0704 33.9647 52.5199 33.9647H52.5841C52.8409 33.9005 52.8409 33.7078 52.8409 33.451C52.8409 33.1942 52.7767 32.8732 52.7767 32.6164C52.7767 32.6164 52.7767 32.6164 52.7767 32.5521C52.7767 32.1669 52.8409 32.1027 52.9693 31.9101C52.9693 31.8459 53.0335 31.7817 53.0335 31.7817C53.0335 31.6533 52.9051 31.5249 52.8409 31.3964C52.7125 31.268 52.5841 31.1396 52.3915 31.0754C52.3272 31.0754 52.263 31.0754 52.1988 31.1396C52.1346 31.3322 52.0062 31.4607 51.8778 31.4607C51.6852 31.4607 51.621 31.3964 51.3642 31.268C50.6579 30.947 49.3738 30.7544 48.2181 30.7544C45.9709 30.7544 43.0817 32.1027 43.0175 35.634C43.0175 38.2022 45.072 40.1284 48.3465 40.1284C49.438 40.1284 50.4011 39.8716 51.0431 39.5505C51.1715 39.4863 51.3 39.5505 51.3642 39.4221V39.3579C51.3 39.2295 51.0431 39.1011 50.9147 39.0369Z" fill="black"/>
<path d="M34.8636 39.1651C34.7994 39.1651 34.671 39.2293 34.6068 39.2293C34.5426 39.2293 34.35 39.2935 34.1573 39.2935C34.0931 39.2935 33.9647 39.2935 33.9005 39.2935C33.5795 39.2293 33.0016 39.1651 33.0016 38.4588C33.0016 38.2662 33.0016 32.5519 33.0016 32.2951C33.0016 31.9098 33.1301 31.653 33.3869 31.653H33.4511C33.5795 31.653 33.7079 31.653 33.8363 31.653C33.9647 31.653 34.0289 31.653 34.0931 31.5888C34.2215 31.4604 34.35 31.2678 34.4142 31.1394C34.4784 31.011 34.5426 30.9468 34.5426 30.8184C34.5426 30.7541 34.5426 30.6899 34.4784 30.6899H34.4142C34.2215 30.6899 33.9005 30.8184 33.6437 30.8184C33.3227 30.8184 32.5522 30.8826 32.1028 30.8826C31.6533 30.8826 31.0755 30.8826 30.8187 30.8184C30.626 30.7541 30.4976 30.6899 30.305 30.6899C30.2408 30.6899 30.1124 30.7541 30.0482 30.8184C29.9198 31.011 29.663 31.2678 29.663 31.4604C29.663 31.5888 29.7272 31.653 29.9198 31.653C30.3692 31.653 30.8829 31.653 31.0755 31.8456C31.2681 32.0383 31.2681 32.1025 31.2681 32.1667V38.202C31.2681 38.4588 31.2681 38.7156 31.2039 38.9082C31.1397 39.1009 31.0755 39.2293 30.9471 39.2293C30.7545 39.2293 30.5618 39.1009 30.3692 39.1009C30.305 39.1009 30.1766 39.1651 30.1124 39.2293C29.9198 39.4861 29.7272 39.6145 29.7272 39.8071C29.7272 39.9355 29.7914 40.0639 29.984 40.0639C30.0482 40.0639 30.0482 40.0639 30.1124 40.0639C30.305 39.9997 31.0113 39.8713 31.7817 39.8713C32.167 39.8713 32.5522 39.8713 32.8732 39.8713C33.1943 39.8713 33.4511 39.8713 33.6437 39.9355C33.9647 39.9997 34.1573 40.0639 34.2858 40.0639H34.35C34.5426 39.9997 34.7994 39.5503 34.8636 39.2935V39.2293C34.992 39.2293 34.9278 39.1651 34.8636 39.1651Z" fill="black"/>
<path d="M18.3631 31.2678C17.3358 30.8826 16.3728 30.8184 15.4739 30.8184C14.5108 30.8184 13.6761 30.9468 13.2909 30.9468C12.4562 30.9468 12.392 30.7541 12.1994 30.6899H12.1352C12.0068 30.6899 11.8784 30.8184 11.6858 31.0752C11.4289 31.332 11.3005 31.4604 11.3005 31.5888C11.3005 31.653 11.3647 31.7172 11.4289 31.7172C11.6858 31.8456 11.8142 31.7814 12.0068 31.8456C12.1994 31.9741 12.392 32.0383 12.392 32.5519V38.202C12.392 38.9082 12.3278 39.1651 12.071 39.2293C11.8142 39.2935 11.2363 39.3577 11.2363 39.6787C11.2363 39.9997 11.5574 40.1923 12.0068 40.1923C12.1352 40.1923 12.1994 40.1923 12.3278 40.1923C12.9699 40.0639 14.0614 40.0639 14.4466 40.0639C14.7034 40.0639 15.6023 40.1281 16.3086 40.1281C16.5654 40.1281 16.8222 40.1281 17.0148 40.0639C17.5927 39.9355 19.262 39.8071 20.4177 38.523C21.5734 37.2389 21.5734 36.1474 21.5734 35.4411C21.5092 34.5423 20.9314 32.2309 18.3631 31.2678ZM13.9972 32.1667C13.9972 31.9098 13.9972 31.7172 14.3824 31.653C14.5108 31.653 14.7676 31.653 15.0245 31.653C15.6665 31.653 16.6296 31.7172 17.2074 31.9098C18.2347 32.2951 19.7114 33.515 19.7114 35.6338C19.7114 38.9724 17.2074 39.2293 16.2444 39.2293C15.6665 39.2293 14.575 39.0367 14.3824 38.9724C14.1256 38.844 13.9972 38.844 13.9972 38.4588C13.9972 38.0094 13.9972 32.2951 13.9972 32.2951C13.9972 32.2951 13.9972 32.2309 13.9972 32.1667Z" fill="black"/>
</svg>
