<?xml version="1.0" encoding="UTF-8"?><svg id="Layer_1" xmlns="http://www.w3.org/2000/svg" viewBox="0 0 1094.40002 400"><defs><style>.cls-1{fill:none;}.cls-2{fill:#e95420;}.cls-3{fill:#fff;}</style></defs><path d="m381.85999,354.01001c-11.69,0-21.64001-1.78-29.85001-5.32999-8.22-3.56-14.85999-8.47-19.94-14.73999-5.07999-6.26001-8.76999-13.59-11.04999-21.98001-2.29001-8.38-3.42999-17.39999-3.42999-27.06v-110.76999h17.28v108.48999c0,9.64999,1.14001,18,3.42999,25.03,2.29001,7.03,5.45999,12.82999,9.53,17.39999,4.06,4.57001,8.98001,7.95999,14.73999,10.16,5.76001,2.20999,12.20001,3.29999,19.31,3.29999s13.54999-1.10001,19.31-3.29999c5.76001-2.20001,10.67001-5.59,14.73999-10.16,4.07001-4.57001,7.23999-10.37,9.53-17.39999s3.42999-15.37,3.42999-25.03v-108.48999h17.28v110.76999c0,9.66-1.14001,18.67001-3.42999,27.06-2.29001,8.38-5.97,15.70999-11.04999,21.98001-5.07999,6.26999-11.73001,11.17999-19.94,14.73999-8.22,3.56-18.17001,5.32999-29.85001,5.32999h-.03998Z"/><path d="m500.60999,226.73c2.88-2.2,7.48999-4.53,13.84998-6.99001,6.34998-2.45,13.84998-3.67999,22.47998-3.67999,9.47998,0,17.90997,1.69,25.28003,5.08,7.37,3.39,13.59003,8.13,18.66998,14.23,5.08002,6.10001,8.92999,13.34,11.56,21.72,2.62,8.38,3.94,17.57001,3.94,27.56,0,10.67001-1.57001,20.23999-4.70001,28.70999-3.14001,8.47-7.53998,15.67001-13.21002,21.59-5.67999,5.92999-12.45001,10.45999-20.33002,13.59s-16.64001,4.70001-26.29999,4.70001c-11.69,0-21.34-.76001-28.95999-2.29001-7.62-1.51999-13.89001-3.13-18.79999-4.82999v-190.03999l16.51001-3.05v73.67999l.01004.02Zm0,107.98c2.54001.85001,6.31,1.64999,11.31,2.41,4.98999.76001,11.56,1.14001,19.69,1.14001,14.22998,0,25.65997-4.60999,34.29999-13.85001,8.64001-9.23001,12.96002-22.48001,12.96002-39.76001,0-7.28-.76001-14.17999-2.28998-20.70999-1.52002-6.51999-3.97998-12.2-7.37-17.02-3.39001-4.83-7.84003-8.68001-13.34003-11.56-5.51001-2.88-12.32001-4.32001-20.45001-4.32001-3.90002,0-7.62.38-11.17999,1.14s-6.85999,1.74001-9.90997,2.92c-3.04999,1.19-5.72,2.46001-8,3.81-2.29001,1.36-4.19,2.63-5.72,3.81v91.97002l-.00003.01999Z"/><path d="m726.96002,345.63c-4.90997,1.35999-11.52002,2.88-19.82001,4.57001s-18.46002,2.54001-30.48999,2.54001c-9.83002,0-18.03998-1.44-24.64001-4.32001-6.60999-2.88-11.94-6.94-16.01001-12.20001-4.06-5.25-6.98999-11.60001-8.76001-19.04999-1.78003-7.45001-2.66998-15.67001-2.66998-24.63998v-73.67999h16.51001v68.34c0,9.32001.67999,17.19,2.03003,23.63,1.34998,6.44,3.56,11.64999,6.60999,15.62,3.04999,3.98001,6.98999,6.85999,11.81,8.64001,4.83002,1.78,10.71002,2.67001,17.65997,2.67001,7.78998,0,14.56-.42001,20.33002-1.26999,5.76001-.85001,9.40002-1.60999,10.91998-2.29001v-115.35001h16.51001v126.78l.01001.00995Z"/><path d="m763.38,223.42999c4.90997-1.35001,11.52002-2.88,19.82001-4.57001s18.46002-2.53999,30.48999-2.53999c9.98999,0,18.33002,1.44,25.03003,4.32001,6.69,2.88,12.02002,6.99001,16.01001,12.31999,3.97998,5.34,6.82001,11.73,8.51001,19.17999,1.69,7.45999,2.53998,15.67001,2.53998,24.63998v73.41998h-16.51001v-68.09c0-9.31-.64001-17.19-1.90997-23.63-1.27002-6.44-3.39001-11.69-6.34998-15.75-2.96002-4.06-6.85999-6.99001-11.69-8.77s-10.88-2.67-18.16998-2.67c-7.78998,0-14.53003.42999-20.20001,1.27-5.67999.85001-9.35999,1.61-11.04999,2.28999v115.34h-16.51001v-126.78l-.01007.02005Z"/><path d="m916.60999,218.85001h52.34003v13.97h-52.34003v69.87c0,7.45999.63,13.51001,1.90997,18.17001,1.27002,4.66,3.09003,8.26001,5.46002,10.79999,2.37,2.54001,5.25,4.23999,8.64001,5.07999,3.39001.85001,7.10999,1.26999,11.17999,1.26999,6.94,0,12.53003-.79999,16.77002-2.41,4.22998-1.60999,7.53003-3.09,9.90997-4.45001l4.07001,13.72c-2.37,1.51999-6.52002,3.26001-12.45001,5.20999-5.92999,1.95001-12.37,2.92001-19.31,2.92001-8.13,0-14.95001-1.06-20.45001-3.17999-5.51001-2.12-9.90997-5.34-13.21002-9.64999s-5.63-9.69-6.98999-16.13-2.03003-14.06-2.03003-22.87v-120.94l16.51001-3.05v41.67l-.00995.00003Z"/><path d="m1094.40002,345.63c-4.91003,1.35999-11.52002,2.88-19.81995,4.57001-8.30005,1.69-18.45996,2.54001-30.48999,2.54001-9.82996,0-18.04004-1.44-24.64001-4.32001-6.60999-2.88-11.94-6.94-16.01001-12.20001-4.06-5.25-6.98999-11.60001-8.76001-19.04999-1.78003-7.45001-2.66998-15.67001-2.66998-24.63998v-73.67999h16.51001v68.34c0,9.32001.67999,17.19,2.03003,23.63,1.34998,6.44,3.56,11.64999,6.60999,15.62,3.04999,3.98001,6.99005,6.85999,11.81,8.64001,4.82996,1.78,10.70996,2.67001,17.66003,2.67001,7.79004,0,14.56006-.42001,20.32996-1.26999,5.76001-.85001,9.40002-1.60999,10.92004-2.29001v-115.35001h16.51001v126.78l.00989.00995Z"/><rect class="cls-2" width="254.06" height="400"/><rect class="cls-1" x="30.25" y="169.38" width="193.57001" height="193.57001"/><circle class="cls-3" cx="58.09" cy="255.92" r="26.3"/><circle class="cls-3" cx="167.63" cy="198.25" r="26.3"/><path class="cls-3" d="m117.41,323.62c-18.95-4.06-34.78-16.16-43.68-33.32001-7.01,3.19-14.9,4.16-22.49,2.76001,10.77,26.45001,33.61,45.66,61.65,51.66998,6.15,1.32001,12.42,1.95999,18.68,1.92001-4.83-6.35001-7.52-14.01001-7.7-21.98999-2.17-.23999-4.33-.59-6.45-1.04999l-.01001.00998Z"/><circle class="cls-3" cx="161.71001" cy="323.76001" r="26.3"/><path class="cls-3" d="m198.31,314.10001c8.17999-10.31,13.94-22.5,16.70999-35.45001,4.84-22.59.32001-46.29001-12.39999-65.51001-3.03,7.14-8.17,13.17-14.78999,17.32001,7.10001,13.38,9.25999,28.82001,6.08,43.67001-1.56,7.26999-4.31,14.12-8.17999,20.38,6.19,5.07999,10.56,11.91,12.59,19.60001l-.01001-.01001Z"/><path class="cls-3" d="m56.06,218.2c.67-.03999,1.34-.05,2-.05,2.66,0,5.31.28,7.94.85001,4.29.92,8.32,2.53999,12.01,4.84,11.84-17.03,30.95-27.25,51.65-27.63.11-1.99001.38-3.97.78999-5.92,1.21001-5.63,3.67-10.89999,7.19-15.41-33.08-2.62-65.22,14.45-81.59,43.33l.01-.00999Z"/></svg>